<mxfile host="app.diagrams.net" modified="2021-09-22T07:22:17.013Z" agent="5.0 (Macintosh; Intel Mac OS X 10_15_7) AppleWebKit/537.36 (KHTML, like Gecko) Chrome/93.0.4577.82 Safari/537.36" etag="4xUoxtP-FrTwrsx_Abqs" version="15.2.9" type="github">
  <diagram id="-Bre18nl8TLQvxplMiWM" name="Page-1">
    <mxGraphModel dx="1893" dy="1028" grid="1" gridSize="10" guides="1" tooltips="1" connect="1" arrows="1" fold="1" page="1" pageScale="1" pageWidth="827" pageHeight="1169" math="0" shadow="0">
      <root>
        <mxCell id="0" />
        <mxCell id="1" parent="0" />
        <mxCell id="zbYN7mDFvuwYt3vfs6Kp-3" style="edgeStyle=orthogonalEdgeStyle;rounded=0;orthogonalLoop=1;jettySize=auto;html=1;exitX=1;exitY=0.5;exitDx=0;exitDy=0;" edge="1" parent="1" source="zbYN7mDFvuwYt3vfs6Kp-1" target="zbYN7mDFvuwYt3vfs6Kp-2">
          <mxGeometry relative="1" as="geometry" />
        </mxCell>
        <mxCell id="zbYN7mDFvuwYt3vfs6Kp-1" value="" style="whiteSpace=wrap;html=1;aspect=fixed;" vertex="1" parent="1">
          <mxGeometry x="150" y="200" width="80" height="80" as="geometry" />
        </mxCell>
        <mxCell id="zbYN7mDFvuwYt3vfs6Kp-2" value="" style="whiteSpace=wrap;html=1;aspect=fixed;" vertex="1" parent="1">
          <mxGeometry x="350" y="200" width="80" height="80" as="geometry" />
        </mxCell>
      </root>
    </mxGraphModel>
  </diagram>
</mxfile>
